<svg width="142" height="143" viewBox="0 0 142 143" fill="none" xmlns="http://www.w3.org/2000/svg">
<path d="M69.0781 1.25613C69.2673 1.15375 69.4663 1.07189 69.6653 0.98999C69.892 1.1353 70.1544 1.21863 70.4124 1.26644C70.7146 1.67639 70.8522 2.21447 71.2789 2.52277C71.6241 2.51652 71.9528 2.37578 72.2934 2.39192C72.5603 2.45304 72.6294 2.78333 72.8784 2.87548C73.0982 2.96398 73.3456 2.98423 73.5538 3.09582C73.7157 3.24182 73.8652 3.40375 74.0333 3.54179C74.2245 3.69143 74.2272 3.9505 74.31 4.1566C74.4249 4.03448 74.485 3.81822 74.6864 3.81529C74.804 3.95228 74.8928 4.20808 75.1094 4.15285C75.3919 4.04635 75.6312 3.82263 75.9418 3.82802C76.0114 3.98527 76.0801 4.13543 76.1426 4.29354C76.2853 4.34104 76.5054 4.31417 76.5501 4.50329C76.6292 4.73865 76.6737 4.98544 76.7937 5.2014C76.5729 5.45892 76.4113 5.78847 76.4688 6.14177C76.5654 6.16602 76.6691 6.18939 76.7658 6.21364C76.8386 6.45696 76.8561 6.83675 77.1834 6.86172C77.3488 6.74072 77.424 6.52974 77.5982 6.42204C77.7359 6.36916 77.8831 6.39454 78.0296 6.35504C78.1523 6.29692 78.2442 6.1055 78.4029 6.16544C78.6237 6.20332 78.6602 6.44393 78.7173 6.61712C78.7682 6.79826 78.9391 6.89994 79.0692 7.021C78.9843 7.21149 78.9003 7.40909 78.8527 7.60945C78.8057 7.87459 79.0196 8.15118 78.8857 8.4125C78.8062 8.58793 78.5862 8.55709 78.4273 8.6125C78.4941 8.51063 78.592 8.42669 78.6128 8.30165C78.5058 8.19215 78.3613 8.13053 78.2302 8.06003C78.2476 7.90659 78.2728 7.75939 78.2981 7.61219C78.1337 7.68269 77.9472 7.74863 77.8598 7.91783C77.8114 8.05343 77.8225 8.2034 77.8114 8.34887C77.8991 8.36012 77.9808 8.37861 78.0623 8.39749C78.1494 8.63909 78.3548 8.787 78.5344 8.95967C78.7487 9.3587 78.3286 9.81344 78.5776 10.201C78.6341 10.3094 78.7118 10.4153 78.8083 10.4972C78.8873 10.4947 78.9645 10.4782 79.0497 10.4678C79.0628 10.5167 79.0946 10.5993 79.1068 10.641C79.2862 10.5759 79.4632 10.4318 79.661 10.4582C79.8539 10.622 80.0299 10.824 80.278 10.909C80.3494 10.785 80.4261 10.646 80.3378 10.5126C80.2693 10.3048 80.0368 10.2899 79.8595 10.2538C79.912 10.2115 79.9636 10.1618 80.016 10.1195C79.998 9.91267 79.9455 9.65965 80.0969 9.48267C80.3492 9.36541 80.6464 9.37967 80.9162 9.34678C80.9895 9.47476 81.0636 9.60985 81.1368 9.73784C81.3505 9.77659 81.5606 9.84472 81.776 9.89773C81.8708 10.2609 81.9371 10.6275 81.9608 10.9994C81.9894 11.2337 81.8184 11.4274 81.8106 11.659C81.8006 11.934 81.8772 12.2057 81.8596 12.4745C81.73 12.7713 81.5774 13.0566 81.5817 13.3875C81.8813 13.4808 82.1755 13.589 82.4932 13.5935C82.6324 13.6125 82.8082 13.5767 82.9169 13.7004C83.1417 13.8891 83.1469 14.2272 83.385 14.4071C83.5921 14.5693 83.5193 14.8592 83.547 15.0864C83.4573 15.1189 83.3685 15.1586 83.2788 15.1911C83.2473 15.3463 83.2156 15.5014 83.154 15.6459C83.0853 15.7912 82.9528 15.8866 82.8769 16.0327C82.8194 16.2703 82.8576 16.5251 82.8374 16.7726C82.818 17.0272 82.7577 17.3011 82.8599 17.5481C83.0173 17.7163 83.2584 17.8022 83.4167 17.9774C83.5204 18.2963 83.3473 18.5912 83.1922 18.8551C83.0514 18.7642 82.8983 18.6315 82.7215 18.7179C82.5739 18.8079 82.4546 18.9522 82.3796 19.1055C82.3984 19.3194 82.6092 19.4522 82.676 19.6458C82.786 19.9567 83.0106 20.2031 83.1268 20.5061C83.1529 20.0705 83.6243 19.977 83.8789 19.701C84.0222 19.5754 84.0947 19.3432 84.3078 19.3172C84.4764 19.2822 84.638 19.2481 84.811 19.2487C85.0431 19.379 85.1158 19.68 85.0671 19.9309C84.9343 20.4371 84.5125 20.82 84.4098 21.3369C84.3793 21.4416 84.3639 21.5515 84.2953 21.6391C84.1477 21.7291 83.8932 21.7098 83.8393 21.9181C83.7572 22.0722 83.9307 22.1952 84.0031 22.3161C84.1534 22.4851 84.2033 22.7168 84.2994 22.9141C84.4524 23.0468 84.7197 22.9926 84.8487 23.1642C84.9839 23.3279 85.1396 23.4819 85.2695 23.6606C85.3628 23.8942 85.3948 24.1569 85.5566 24.3606C85.6802 24.5473 85.9186 24.6119 86.0477 24.7835C86.0675 24.9469 85.9713 25.1027 85.9557 25.2704C86.063 25.5599 86.2379 25.8124 86.3728 26.0914C86.5235 26.1452 86.6982 26.1598 86.8194 26.2676C86.9758 26.4863 87.0309 26.7607 87.125 27.0014C87.1803 27.218 87.4659 27.2553 87.5211 27.472C87.6311 27.7828 87.7143 28.1114 87.946 28.3569C88.1891 28.6372 88.5085 28.9513 88.4354 29.3566C88.4291 29.66 88.1101 29.8214 88.0657 30.1078C87.9945 30.4696 87.9313 30.8376 87.8894 31.203C87.7461 31.3286 87.5428 31.375 87.4164 31.5201C87.233 31.7298 87.0566 31.9386 86.8653 32.1421C86.8096 32.0407 86.7479 31.9474 86.6931 31.8532C86.5733 31.875 86.4526 31.8897 86.3327 31.9116C86.3227 31.8335 86.3137 31.7554 86.298 31.6852C86.2252 31.6802 86.1525 31.674 86.0798 31.6686C86.1844 31.4037 85.9383 31.2175 85.7497 31.0891C85.5319 30.9571 85.3152 30.7169 85.0371 30.8589C85.0259 30.9397 85.0065 31.0212 84.9955 31.109C84.9032 31.1202 84.8117 31.1386 84.7194 31.1499C84.7537 31.2537 84.7942 31.3497 84.8277 31.4465C84.6645 31.7042 84.5403 31.986 84.386 32.257C84.3797 32.4451 84.2253 32.5936 84.2557 32.7845C84.3399 32.8247 84.4161 32.8586 84.4994 32.8917C84.4679 33.0469 84.3714 33.2604 84.5503 33.3683C84.7891 33.3176 84.8698 33.034 85.0229 32.8712C85.3758 33.2245 85.9198 33.1942 86.3805 33.1309C86.7596 33.0486 87.0397 33.3964 87.1852 33.7029C87.2508 34.0048 86.9893 34.224 86.875 34.4686C86.8582 34.7444 86.9538 35.057 87.1965 35.2148C87.3764 35.2722 87.5754 35.1902 87.7625 35.2467C87.9272 35.3563 88.065 35.5413 88.0759 35.749C88.0439 36.0771 87.9345 36.4219 87.6235 36.5895C87.6347 36.8043 87.6691 37.0235 87.6667 37.24C87.6385 37.4813 87.5437 37.709 87.5661 37.9513C87.6241 38.427 87.2148 38.7939 87.2356 39.2598C87.2496 39.6112 87.4402 39.9338 87.6915 40.1626C87.9384 40.3559 87.8672 40.7177 88.0537 40.9472C88.1836 41.1259 88.2655 41.3249 88.3892 41.5116C88.5421 41.7019 88.8051 41.85 88.8167 42.1224C88.7185 42.3218 88.5105 42.448 88.4353 42.6589C88.4156 43.0288 88.5528 43.3868 88.5623 43.7604C88.4534 43.9898 88.3303 44.221 88.2895 44.4782C88.1595 44.6526 88.0555 44.9823 87.7807 44.9149C87.6494 44.9021 87.57 44.7821 87.4664 44.701C87.3739 44.7699 87.2946 44.8877 87.1625 44.8678C86.9505 44.8432 86.7418 44.9047 86.5411 44.9723C86.6038 45.0728 86.7232 45.1663 86.7042 45.3055C86.6574 45.8084 86.3827 46.2743 86.0223 46.628C85.8345 46.8022 85.7566 47.0495 85.6158 47.2541C85.5119 47.2883 85.4055 47.2441 85.3044 47.2416C85.251 47.2769 85.1976 47.3122 85.1444 47.3475C85.1802 46.9324 85.6724 46.7139 85.6046 46.2754C85.435 46.3033 85.2769 46.3658 85.1285 46.4487C85.0197 46.3251 84.8959 46.196 84.8814 46.0177C84.8295 45.5916 84.6293 45.1909 84.3384 44.8733C84.4722 44.9074 84.6061 44.9415 84.74 44.9756C84.6551 44.5752 84.7938 44.1764 84.7889 43.7807C84.7011 43.7694 84.6221 43.7719 84.5431 43.7744C84.5435 43.6591 84.5066 43.5339 84.5592 43.4338C84.651 43.3001 84.7844 43.2118 84.9089 43.1101C84.8727 43.0496 84.8303 42.9972 84.7942 42.9368C84.8122 42.8481 84.8364 42.7515 84.8615 42.6619C84.7942 42.6413 84.7268 42.6207 84.6515 42.5938C84.5797 42.8331 84.3112 42.7578 84.124 42.759C84.1202 42.9036 84.1239 43.0544 84.1277 43.2053C84.0371 43.2308 83.9403 43.2641 83.8426 43.2905C83.8855 43.4654 83.956 43.6298 84.0265 43.7941C83.7799 43.781 83.5584 43.6783 83.3672 43.5286C83.3191 43.6065 83.2719 43.6916 83.2245 43.7766C83.2345 43.6817 83.2446 43.5868 83.2618 43.491C83.3844 43.4328 83.5132 43.3667 83.627 43.2952C83.5874 43.2063 83.5478 43.1175 83.508 43.0286C83.6254 42.9279 83.75 42.8262 83.8116 42.6818C83.7891 42.4972 83.6752 42.3309 83.5015 42.2656C83.2975 42.2472 83.1099 42.3637 83.0003 42.5285C83.0008 42.6508 83.0305 42.777 83.0604 42.9031C82.9839 42.9844 82.9161 43.0792 82.8316 43.1543C82.6602 43.2257 82.4295 43.225 82.3216 43.4038C82.2608 43.5554 82.2523 43.7222 82.2508 43.8881C82.3206 43.9877 82.4583 43.9348 82.5541 43.9519C82.4678 44.0129 82.3753 44.0818 82.29 44.1499C82.392 44.1586 82.4931 44.1611 82.588 44.1712C82.6177 44.2973 82.6476 44.4234 82.6782 44.5566C82.72 44.5441 82.7964 44.5206 82.839 44.5153C82.8722 44.3744 82.8727 44.2014 83.007 44.1201C83.0075 44.2425 83.0007 44.3659 83.002 44.4883C83.3095 44.5877 83.6353 44.5408 83.9382 44.4247C83.9953 44.3024 84.0207 44.1552 84.1407 44.0757C84.2624 44.0105 84.4053 44.0002 84.5393 43.9767C84.5356 44.1213 84.4622 44.2311 84.3325 44.2902C84.3069 44.5527 84.0669 44.7117 83.9508 44.942C83.8367 45.1289 83.8129 45.3479 83.7821 45.5679C83.62 45.4795 83.4383 45.408 83.2624 45.5015C83.3194 45.7324 83.4385 45.9412 83.5843 46.1324C83.6724 46.028 83.7677 45.9227 83.8647 45.8316C83.9944 45.7726 84.1319 45.7774 84.2659 45.7539C84.3118 45.8348 84.3506 45.9165 84.3965 45.9974C84.276 45.9544 84.1625 45.9106 84.042 45.8676C83.9251 46.0909 83.7834 46.2883 83.6497 46.4919C83.569 46.4807 83.4945 46.4604 83.4138 46.4487C83.4128 46.4993 83.4201 46.5561 83.4188 46.6066C83.3371 46.6454 83.2562 46.6912 83.1816 46.7292C83.1667 46.6662 83.1527 46.6103 83.1378 46.5472C83.0001 46.6001 82.8489 46.7194 82.7019 46.6364C82.5299 46.5852 82.3556 46.4552 82.1805 46.5557C82.0898 46.5812 82.0807 46.6832 82.0539 46.7585C81.8705 46.6728 81.6973 46.7299 81.554 46.8555C81.6497 46.9304 81.7461 47.0123 81.8488 47.0862C81.4228 47.1381 81.3157 47.6196 81.28 47.977C80.9806 47.8262 80.8852 47.3982 80.5161 47.3856C80.5371 47.4983 80.5571 47.604 80.5853 47.7158C80.5285 47.7233 80.4716 47.7297 80.4148 47.7366C80.401 47.9184 80.373 48.102 80.3661 48.283C80.4875 48.333 80.6349 48.3006 80.7653 48.3063C80.7454 48.4385 80.6899 48.5749 80.7553 48.6967C80.8503 48.9445 81.1551 49.0803 81.1471 49.3695C81.0212 49.3417 80.9132 49.2828 80.8176 49.2079C80.6451 49.3298 80.3671 49.4142 80.3619 49.667C80.3669 49.8897 80.3745 50.1843 80.604 50.2932C80.8343 50.4092 81.0575 50.5262 81.2932 50.6272C81.5209 50.7219 81.7835 50.7476 81.9585 50.9424C82.1142 51.0964 82.1979 51.3096 82.2798 51.5086C82.1474 51.5463 82.0151 51.5841 81.8828 51.6218C81.9003 51.7062 81.9116 51.7985 81.9228 51.8908C82.2553 51.9583 82.6815 51.8488 82.9389 52.1273C82.8574 52.1084 82.7757 52.0895 82.6871 52.0715C82.5062 52.3025 82.4645 52.6103 82.4051 52.8913C82.4716 53.2003 82.6366 53.49 82.6755 53.8096C82.7123 53.9924 82.5449 54.157 82.6171 54.3355C82.7384 54.7387 82.6616 55.1732 82.8458 55.5615C82.8676 55.6814 82.9914 55.8104 82.8819 55.9174C82.6807 56.1581 82.3707 56.2751 82.1535 56.5034C82.012 56.6431 81.8856 56.7882 81.7441 56.928C81.6892 56.596 81.6868 56.2216 81.4321 55.9644C81.1801 55.6708 80.766 55.5844 80.3968 55.6294C80.0284 55.6815 79.7233 55.9565 79.5918 56.2968C79.5024 56.5094 79.8896 56.9845 79.8809 57.2089C79.9052 57.4078 79.4006 57.3289 79.3281 57.5035C79.2086 57.7054 79.2514 57.938 79.2428 58.1624C78.8977 58.3422 78.8194 58.5629 79.0747 58.8531C79.019 59.1049 78.9702 59.3558 78.8923 59.6031C78.6802 59.6362 78.4601 59.663 78.2628 59.7591C77.8655 59.9877 77.6528 60.4892 77.765 60.9367C77.0293 61.3451 76.7169 61.6371 78.2171 61.631C78.1687 61.7666 78.1515 61.92 78.0411 62.02C77.8635 62.0992 77.76 62.8316 77.592 62.9314C77.4436 63.0144 77.205 62.4317 77.024 62.4249C76.6139 64.1444 76.1526 62.6813 75.8694 62.8251C75.4963 63.2525 75.6151 63.8721 75.5629 64.3901C75.4648 65.4181 75.5832 66.4486 75.6714 67.4683C75.7793 68.4712 75.7069 69.4744 75.7145 70.4823C75.651 71.7943 75.9106 73.0958 76.0485 74.4049C76.2794 76.063 76.2751 77.7425 76.3703 79.4099C76.437 80.1944 76.4036 80.9839 76.5138 81.7704C76.6722 83.0697 76.8314 84.3763 76.9898 85.6756C77.0893 86.4922 77.1684 87.3185 77.3807 88.1141C77.577 88.8972 77.7032 89.6961 77.9058 90.4713C78.0135 90.9409 78.2313 91.3684 78.4216 91.8064C79.3087 96.1216 81.9446 96.7654 82.7422 98.9828H61.5691C61.5691 98.9828 62.0441 97.9099 62.2337 97.6922C62.5827 97.3038 62.9556 96.9341 63.2798 96.5198C63.6455 95.9132 63.9181 95.2531 64.2155 94.6187C64.6173 93.7771 65.0112 92.9292 65.4051 92.0813C65.707 91.4248 66.4648 91.0803 66.6587 90.3649C67.0798 88.1445 67.4939 85.925 67.9159 83.7118C68.1015 82.5146 68.2001 81.3136 68.3422 80.1145C68.4848 79.0379 68.584 77.9593 68.7195 76.8835C68.8091 76.0223 68.9492 75.1621 68.9368 74.2917C68.9683 72.4215 68.9199 70.5466 69.0454 68.6794C69.0156 68.0201 69.0078 67.3653 69.0932 66.7063C69.1222 66.2344 69.1716 65.7528 69.0994 65.2788C68.8994 65.4113 68.8178 65.6878 68.5825 65.7669C68.3972 65.7247 68.2307 65.6008 68.0553 65.5213C67.9235 65.6815 67.7749 65.8221 67.6183 65.9565C67.577 65.558 67.4637 65.1611 67.5005 64.7531C67.363 64.7481 67.2317 64.7353 67.0933 64.7234C67.0833 64.8183 67.0741 64.9204 67.065 65.0224C67.1338 65.1149 67.2871 65.1898 67.2459 65.3246C67.1908 65.6411 67.1445 65.9711 66.9379 66.2268C66.9882 66.0478 67.0685 65.8794 67.0886 65.6896C67.1083 65.3774 66.6235 65.4797 66.6226 65.1771C66.5768 64.8008 66.3444 64.4905 66.1288 64.1997C65.9966 64.1798 65.8725 64.166 65.7412 64.1532C65.7729 63.9403 65.9326 63.6543 65.7051 63.5018C65.4995 63.4116 65.2661 63.4472 65.0478 63.4306C64.9705 63.2094 64.9269 62.9698 64.8086 62.768C64.5848 62.5286 64.2314 62.6437 63.9447 62.6571C63.9317 62.2551 64.2167 61.9322 64.3305 61.5652C64.4916 61.1132 64.7185 60.61 64.5514 60.1259C64.3872 59.8433 64.0055 59.9042 63.7307 59.8368C63.7831 59.5566 63.9462 59.2989 63.9763 59.0142C63.923 58.7541 63.6186 58.7984 63.4189 58.8156C63.2422 58.8443 63.0801 58.7559 62.9198 58.6818C62.8688 58.2629 62.7105 57.7922 62.9433 57.3963C63.0344 57.1978 63.2635 57.1267 63.4457 57.0252C63.457 56.9445 63.4684 56.8567 63.4802 56.776C63.6766 56.6728 63.7899 56.4788 63.8668 56.2821C63.7724 56.0991 63.6247 55.9513 63.4912 55.8019C63.6441 55.6967 63.8298 55.6237 63.9261 55.4678C63.9817 55.2737 63.9708 55.066 63.9821 54.8629C64.2561 54.6277 64.5636 54.4317 64.8729 54.2499C64.9214 54.352 64.9771 54.4534 65.0326 54.5547C65.4991 54.5987 65.6279 53.9994 66.0487 53.9048C66.0063 53.8523 65.9629 53.7928 65.9206 53.7403C66.2099 53.6907 66.4819 53.5566 66.7816 53.5921C66.9555 53.5996 67.1313 53.5639 67.3071 53.5281C67.1988 53.2314 67.0969 52.9268 67.1812 52.6139C67.1022 52.6164 67.0224 52.6114 66.9435 52.614C66.9057 52.4817 66.8325 52.3537 66.8365 52.2091C66.8945 52.094 66.9906 51.9958 67.0717 51.8922C67.1662 52.0176 67.2866 52.1182 67.4318 52.187C67.3698 51.8559 67.5597 51.5805 67.668 51.2863C67.5805 51.16 67.4797 51.0426 67.4119 50.8996C67.6228 50.9747 67.8445 51.0198 68.0734 51.0063C68.1722 51.2249 68.3792 51.387 68.4441 51.6241C68.576 51.4639 68.6227 51.2564 68.7156 51.0722C68.8169 51.0165 68.9199 50.9752 69.0221 50.9267C68.8772 50.7426 68.7314 50.5514 68.6531 50.3231C68.5403 50.0486 68.583 49.748 68.5546 49.456C68.4105 49.5745 68.2505 49.6804 68.124 49.8256C67.9869 50.0008 68.1557 50.2036 68.219 50.3688C67.9856 50.4045 67.8572 50.5931 67.7422 50.7728C67.6286 50.4912 67.9262 50.0947 67.6145 49.9021C67.469 49.8908 67.3208 49.9162 67.1708 49.9273C67.0964 50.1454 67.1608 50.3753 67.237 50.5894C67.1652 50.5907 67.0924 50.5857 67.0206 50.5869C66.9933 50.7776 67.0381 50.9667 67.1378 51.1347C66.9097 51.1553 66.687 51.1608 66.4704 51.2161C66.3263 51.3346 66.2866 51.5411 66.1983 51.7032C66.1808 51.6188 66.1641 51.5416 66.1546 51.4635C65.9307 51.5773 65.6848 51.6289 65.4345 51.645C65.4482 51.5208 65.461 51.3895 65.4748 51.2654C65.342 51.1806 65.2287 51.0792 65.1146 50.9706C65.2906 50.8771 65.4762 50.804 65.6716 50.7514C65.6558 50.9767 65.5661 51.3047 65.8515 51.3996C66.0042 51.3521 66.1384 51.2709 66.2815 51.2031C66.269 51.1037 66.2431 51.006 66.2451 50.9048C66.2917 50.755 66.4102 50.6037 66.3476 50.4456C66.236 50.1205 66.1029 49.798 65.9371 49.5012C65.7968 49.5327 65.6556 49.5571 65.5082 49.5894C65.625 49.4239 65.7178 49.2396 65.8832 49.1186C66.2809 49.0701 66.719 49.413 67.0695 49.0964C67.0256 49.2099 66.9899 49.3295 66.9531 49.4421C67.1322 49.4924 67.3141 49.5062 67.5013 49.505C67.4594 49.2795 67.4325 49.0594 67.4199 48.8375C67.3809 48.8134 67.3039 48.7724 67.2658 48.7554C67.4435 48.3807 67.6601 48.03 67.7546 47.6222C67.6082 47.6039 67.4548 47.5867 67.3005 47.5621C67.3001 47.382 67.4725 47.3178 67.6102 47.265C67.6027 47.2081 67.5884 47.1451 67.5743 47.0892C67.2374 46.9861 66.9016 46.8325 66.5387 46.8696C66.4515 46.9234 66.3733 46.9906 66.295 47.0578C66.3382 47.1174 66.3895 47.1832 66.4328 47.2428C66.4216 47.2658 66.3901 47.3056 66.3784 47.3286C66.2174 47.1897 66.171 46.9864 66.1184 46.7911C65.9656 46.8386 65.7978 46.8806 65.6838 47.0098C65.4819 47.1857 65.4438 47.4642 65.3729 47.7106C65.5621 47.666 65.7591 47.6275 65.9508 47.6041C65.9458 47.7416 65.927 47.8809 65.9141 48.0121C65.7402 48.0046 65.5655 47.9897 65.3916 47.9821C65.3265 47.8027 65.2623 47.6304 65.1901 47.4518C65.1443 47.6087 65.1057 47.7648 65.0679 47.9279C65.0742 47.8045 65.0804 47.6742 65.0877 47.558C65.0052 47.532 64.9157 47.5069 64.827 47.4889C64.7152 47.5169 64.6341 47.6205 64.5257 47.6769C64.4122 47.633 64.3167 47.5583 64.2148 47.4914C64.0228 47.6301 63.785 47.6303 63.5701 47.6997C63.6373 47.778 63.7044 47.8563 63.785 47.9257C63.7547 47.9726 63.7235 48.0125 63.6932 48.0594C63.5752 48.0378 63.4502 48.0169 63.3278 48.0175C63.1555 48.0818 63.0034 48.194 62.8145 48.181C62.8107 48.3833 62.7494 48.5925 62.8446 48.7826C63.0036 49.0227 62.8137 49.298 62.8307 49.5554C62.8631 49.7027 63.0469 49.6731 63.1532 49.7178C63.0603 49.9021 62.9516 50.0739 62.8818 50.2697C62.8664 50.3797 62.888 50.4995 62.8807 50.6158C62.8173 50.746 62.7087 50.8601 62.6763 51.0082C62.8005 51.0218 62.9309 51.0275 63.0604 51.0262C62.9697 51.1093 62.8869 51.1986 62.8104 51.28C62.6159 51.0443 62.5317 50.7087 62.648 50.4207C62.6722 50.3241 62.7391 50.2222 62.643 50.1474C62.4689 50.1974 62.4318 50.4254 62.2657 50.4816C62.1014 50.5521 61.9268 50.4791 61.7663 50.4633C61.7428 50.3292 61.7192 50.1952 61.6885 50.062C61.6459 50.067 61.5474 50.0864 61.4977 50.0925C61.3898 50.2714 61.3501 50.478 61.5271 50.6294C61.4297 50.8358 61.3119 51.0519 61.2899 51.2852C61.2611 51.4617 61.2756 51.64 61.2164 51.8058C61.1274 51.9031 60.9916 51.9124 60.8746 51.8979C60.8346 51.6289 60.7733 51.3626 60.7049 51.0971C60.7849 51.0441 60.8641 50.984 60.9512 50.9302C60.9387 50.8308 60.9261 50.7242 60.9211 50.624C60.8464 50.6619 60.7789 50.699 60.7113 50.736C60.616 50.6035 60.5749 50.3851 60.3868 50.3792C60.1936 50.3307 60.0458 50.4785 59.9062 50.5747C60.0326 50.725 60.2197 50.7815 60.3987 50.8317C60.3875 50.9772 60.3987 51.1272 60.3584 51.269C60.2044 51.4247 59.9684 51.4391 59.7832 51.3391C59.8359 51.239 59.8885 51.139 59.9421 51.046C59.6917 50.8243 59.3832 50.7177 59.0971 50.5581C58.9795 50.7165 58.8787 50.8945 58.8675 51.0977C58.9613 51.1583 59.0614 51.2109 59.1428 51.2875C59.1993 51.3959 59.1722 51.5289 59.1213 51.6432C59.0783 51.7637 58.9178 51.7473 58.8148 51.7887C58.8235 51.7443 58.8284 51.6645 58.8313 51.6281C58.9238 51.5592 59.01 51.4982 59.0962 51.4373C58.9791 51.4228 58.8621 51.4082 58.7371 51.3874C58.7726 51.0876 58.8208 50.7143 58.5366 50.5111C58.6701 50.3651 58.7727 50.2013 58.8371 50.0205C59.0058 49.9855 59.1665 49.9444 59.3343 49.9023C59.3074 49.6821 59.3091 49.4586 59.3036 49.2358C59.3011 49.0992 59.1943 48.9897 59.1432 48.8663C59.142 48.7367 59.1697 48.6108 59.1905 48.4858C58.9603 48.6075 58.7743 48.7959 58.6272 49.0084C58.5594 49.1608 58.5225 49.331 58.4696 49.4888C58.4014 49.4611 58.334 49.4404 58.2666 49.4198C58.3133 49.27 58.3314 49.1237 58.3416 48.9711C58.2119 49.0301 58.0893 49.0883 57.9604 49.1545C57.9167 48.9725 57.8436 48.7868 57.8353 48.6005C57.899 48.3549 58.023 48.1308 58.1027 47.8977C57.9645 47.8281 57.8255 47.7513 57.6926 47.6666C57.7061 47.6001 57.7196 47.5336 57.734 47.4742C57.8491 47.5322 57.9607 47.6195 58.0937 47.6466C58.2331 47.6079 58.3531 47.5285 58.482 47.4623C58.4526 47.2209 58.4231 46.9795 58.4 46.7301C58.3502 46.7364 58.2651 46.7465 58.2225 46.7518C58.2287 46.9168 58.2325 47.0747 58.2387 47.2398C57.9568 47.4687 57.6631 47.1874 57.4267 47.0217C57.2712 47.1054 57.1006 47.1839 56.9636 47.3015C57.044 47.4286 57.1331 47.5691 57.0732 47.7277C57.0223 47.842 57.1477 48.0429 56.9958 48.0975C56.7153 47.865 56.3814 47.6679 56.1516 47.3789C56.0127 47.2445 56.1358 47.071 56.1761 46.9291C56.1196 46.8207 56.057 46.7203 56.0014 46.6189C56.0577 46.4896 56.1415 46.3496 56.0808 46.2057C55.9805 45.9153 55.8181 45.6469 55.7241 45.3485C55.8057 45.3673 55.8943 45.3853 55.9759 45.4042C56.0115 45.3422 56.0401 45.2811 56.0768 45.2262C56.1628 45.2224 56.2418 45.2199 56.3287 45.2237C56.32 45.0879 56.3175 44.9513 56.3079 44.8155C56.4459 44.9428 56.6187 45.001 56.8078 44.9563C56.8822 44.7383 56.7372 44.5542 56.6766 44.3526C56.7251 44.1593 56.7443 43.9624 56.6162 43.7979C56.5603 43.8119 56.5115 43.825 56.4555 43.8391C56.4275 43.7273 56.4981 43.5385 56.3625 43.4902C56.2876 43.5858 56.2448 43.7063 56.2009 43.8197C56.2273 43.622 56.2768 43.3781 56.0553 43.2754C55.9952 43.4917 55.935 43.708 55.8821 43.9234C55.7487 43.7163 55.579 43.5064 55.6118 43.243C55.5843 42.9581 55.7829 42.6961 56.037 42.5931C56.2031 42.5368 56.2888 42.3534 56.4381 42.2776C56.6761 42.2197 56.9421 42.2738 57.166 42.1601C57.365 42.0782 57.4623 41.8717 57.618 41.7303C57.8659 41.6353 58.1637 41.7141 58.3984 41.5703C58.4891 41.4872 58.5409 41.38 58.6078 41.2782C58.7179 41.2359 58.8289 41.2008 58.9471 41.1648C59.0044 40.9848 59.0122 40.7533 59.1944 40.6518C59.454 40.4761 59.7233 40.3207 59.9414 40.0996C59.8982 39.6869 60.0069 39.2773 60.1934 38.9159C60.2724 38.9134 60.3522 38.9184 60.4392 38.9222C60.5103 38.8558 60.5815 38.7895 60.6527 38.7232C60.7093 38.774 60.774 38.831 60.8306 38.8817C60.9913 38.545 61.2547 38.2823 61.4473 37.9706C61.7365 37.9781 62.0126 37.9377 62.2983 37.9174C62.5112 37.9491 62.7013 38.1493 62.927 38.0497C63.1428 37.9873 63.1383 37.7141 63.1965 37.5413C63.3834 37.6554 63.5863 37.7244 63.8012 37.6549C63.805 37.5103 63.8296 37.356 63.7975 37.2086C63.683 36.9199 63.3471 36.8239 63.1935 36.5688C63.1071 36.392 63.254 36.2372 63.3218 36.0848C63.388 35.9182 63.3666 35.683 63.5505 35.5958C63.7041 35.5554 63.8655 35.579 64.0163 35.575C64.1013 35.3268 64.2325 35.1019 64.3557 34.8707C64.3469 34.7997 64.2708 34.7657 64.2292 34.7204C64.1465 34.8097 64.0766 35.0056 63.9171 34.9386C63.6989 34.9219 63.6713 34.6947 63.615 34.5286C63.5102 34.5557 63.3975 34.5767 63.2839 34.5906C63.3575 34.8987 63.2421 35.1938 63.1258 35.4818C62.9134 35.3347 62.8689 35.088 62.89 34.8476C62.7953 34.7798 62.6872 34.721 62.6041 34.6302C62.571 34.4181 62.6166 34.1964 62.6629 33.9889C62.731 33.7789 62.9971 33.7753 63.1483 33.6559C63.3735 33.4339 63.5021 33.13 63.5288 32.8169C63.5213 32.5152 63.3443 32.2485 63.3576 31.9442C63.375 31.7908 63.4596 31.658 63.492 31.5099C63.5008 31.4079 63.4385 31.3074 63.4114 31.2027C63.4825 31.1363 63.5538 31.07 63.625 31.0037C63.6187 30.9539 63.6077 30.8617 63.6016 30.812C63.5511 30.8109 63.4499 30.8082 63.3922 30.8082C63.3316 30.9021 63.271 30.9959 63.2041 31.0978C63.0349 31.0103 62.8559 30.9601 62.6652 30.9329C62.6247 31.1324 62.5762 31.3256 62.5578 31.5296C62.5002 31.5295 62.4424 31.5293 62.3848 31.5291C62.3628 31.467 62.3399 31.3977 62.3179 31.3355C62.2541 31.343 62.1901 31.3511 62.1271 31.366C62.079 31.4439 62.0387 31.5281 61.9915 31.6131C61.908 31.6378 61.8166 31.6561 61.7322 31.6735C61.7532 31.4908 61.7573 31.2885 61.6238 31.1391C61.2686 31.2401 60.9108 31.3197 60.5645 31.4339C60.5485 31.7169 60.5493 32.0195 60.3924 32.2692C60.2301 32.534 60.0918 32.8174 60.0429 33.126C60.07 33.2308 60.1176 33.3259 60.1583 33.4219C59.995 33.4417 59.8316 33.4616 59.6692 33.4886C59.6246 33.2995 59.7501 33.1473 59.8092 32.9815C59.8179 32.8724 59.8117 32.7651 59.8142 32.6639C59.5701 32.6714 59.3305 32.7157 59.0908 32.7593C58.8173 32.8214 58.5998 32.5741 58.3263 32.6363C58.2868 32.4898 58.2593 32.2049 58.0408 32.3036C57.7627 32.4456 57.5384 32.6747 57.2355 32.7909C57.2751 32.8797 57.3156 32.9757 57.3561 33.0716C57.2475 33.1857 57.1522 33.291 57.0507 33.4043C56.8639 33.2901 56.9409 33.0934 56.9777 32.9232C56.9116 32.7943 56.8054 32.692 56.7126 32.5808C56.8231 32.4232 56.9655 32.2905 57.0911 32.1383C57.2303 31.8619 57.2269 31.5381 57.2473 31.2329C57.4309 30.9655 57.7562 30.7962 57.8007 30.4521C57.8455 30.0503 58.1099 29.737 58.2689 29.3862C58.3476 29.146 58.6759 29.1781 58.7937 28.9619C58.9854 28.6431 59.1276 28.2727 59.1181 27.8991C58.9994 27.8704 58.8867 27.8336 58.7733 27.7899C58.6264 27.9447 58.4636 28.087 58.3088 28.2356C58.2036 28.1404 58.1107 28.0292 58.025 27.9171C57.8598 27.685 57.5602 27.5919 57.4279 27.3341C57.3475 27.207 57.3151 27.0596 57.3191 26.915C57.157 26.8267 56.9524 26.7436 56.9264 26.5305C56.7854 26.2018 57.2962 26.0171 57.1783 25.7C57.0387 25.7962 56.889 25.9874 56.7004 25.8591C56.4479 25.7386 56.7497 25.4352 56.5906 25.2528C56.4262 25.0278 56.4443 24.6437 56.725 24.523C56.8921 24.4161 57.0665 24.5463 57.2305 24.5911C57.277 24.2036 56.8503 23.8953 56.9757 23.5053C57.0727 23.1187 57.1989 22.7358 57.3562 22.3708C57.5997 22.2402 57.9021 22.297 58.1359 22.146C58.2609 22.1668 58.4256 22.2765 58.5245 22.1423C58.8664 21.7547 59.0188 21.2317 59.1242 20.7361C59.2023 20.7261 59.2804 20.7171 59.3514 20.7083C59.3894 20.4875 59.3414 20.27 59.2646 20.056C59.1924 19.8774 59.3464 19.7217 59.4294 19.5747C59.5532 19.4083 59.6071 19.1999 59.6999 19.0157C59.8416 18.8183 60.0504 18.6991 60.2354 18.5613C60.354 18.6477 60.4735 18.7412 60.6038 18.8046C60.8147 18.8798 61.0615 18.8353 61.2572 18.9628C61.5388 19.1447 61.6326 19.5007 61.9088 19.6977C62.0194 19.7779 62.1589 19.7393 62.2727 19.6677C62.1697 19.4136 62.0737 19.1587 61.9565 18.9063C62.084 18.7106 62.2114 18.515 62.338 18.3122C62.445 18.1262 62.5194 17.9082 62.6805 17.7516C62.7942 17.6801 62.9442 17.669 63.0765 17.6312C63.0183 17.5086 62.9096 17.385 62.9287 17.2457C63.0591 16.956 63.3383 16.7634 63.6253 16.6348C63.8466 16.4997 64.0525 16.7701 64.2851 16.7273C64.4271 16.71 64.5939 16.7185 64.7139 16.639C64.7135 16.4589 64.6635 16.2849 64.6862 16.1164C64.9019 15.8163 65.273 16.0232 65.5693 16.0304C65.6542 15.5444 65.3806 15.0734 65.5161 14.5885C65.5961 14.5355 65.6815 14.4675 65.7765 14.4198C65.8938 14.3767 66.0578 14.421 66.1442 14.3029C66.2616 14.2022 66.2062 14.0432 66.212 13.9127C66.1815 13.7219 66.3275 13.56 66.4087 13.3988C66.4956 13.4025 66.5826 13.4063 66.6766 13.4088C66.7446 13.4941 66.8199 13.5787 66.8888 13.6711C67.1188 13.6071 67.3323 13.7035 67.5138 13.8328C67.626 13.6894 67.6328 13.5084 67.5348 13.3546C67.4584 13.3784 67.3829 13.4091 67.2994 13.4337C67.0975 13.3142 66.8947 13.1876 66.7106 13.0371C66.8216 13.002 66.9406 12.9731 67.0587 12.937C67.0075 12.8712 66.9304 12.8301 66.8613 12.7953C66.87 12.7439 66.8767 12.6853 66.8778 12.6348C66.745 12.55 66.6158 12.4361 66.5275 12.3028C66.6399 12.1017 66.7301 11.8961 66.8266 11.6826C67.045 11.6416 67.199 11.4859 67.3148 11.3133C67.6359 11.3461 67.9953 11.3384 68.2091 11.615C68.464 11.5191 68.7207 11.4373 68.9871 11.3761C69.0414 11.2902 69.0958 11.2043 69.1662 11.1308C69.3463 11.1305 69.5064 11.2623 69.673 11.3285C69.6947 11.2106 69.8061 11.0601 69.7062 10.9497C69.6293 10.851 69.532 10.762 69.4488 10.6712C69.3325 10.7215 69.2223 10.7637 69.1059 10.8139C69.0484 10.756 68.9909 10.6983 68.9343 10.6475C69.222 10.5836 69.4347 10.3775 69.6588 10.2061C69.6213 10.0161 69.4333 9.95253 69.2792 9.87044C69.2398 9.96169 69.2077 10.0521 69.1834 10.1487C69.0832 10.1537 68.9891 10.1512 68.8959 10.155C68.8166 10.2727 68.7373 10.3905 68.6509 10.5091C68.5526 10.413 68.4607 10.3089 68.3625 10.2128C68.2808 10.2515 68.1999 10.2974 68.1182 10.3363C68.0316 10.2172 67.9396 10.113 67.821 10.0266C67.7908 10.0736 67.7363 10.1594 67.7131 10.2055C67.6359 9.92667 67.572 9.639 67.4744 9.36988C67.3774 9.16551 67.4794 8.93693 67.4311 8.7194C67.0062 9.13916 67.2923 8.85304 67.1348 9.00773C67.1203 8.82935 67.0082 8.61962 67.141 8.46654C67.3182 8.26479 67.5016 8.05508 67.7204 7.89872C67.7648 7.90746 67.8383 7.92034 67.8747 7.92309C67.9563 7.64653 68.0036 7.26605 67.7478 7.05943C67.7391 6.93075 67.7378 6.80122 67.7353 6.66458C67.6084 6.6872 67.4558 6.67708 67.3429 6.7557C67.1936 6.83158 67.1504 7.00974 67.0888 7.15418C67.0245 6.98185 66.9328 6.82009 66.8481 6.65748C66.616 6.82268 66.4884 7.07603 66.4937 7.35641C66.3126 7.40729 66.1437 7.49995 66.0093 7.63884C66.0684 7.4731 66.2125 7.35465 66.2724 7.19603C66.2472 7.04778 66.205 6.87996 66.0847 6.77934C65.6596 6.54291 65.197 6.94519 64.7637 6.76022C64.5637 6.59724 64.5103 6.33712 64.4454 6.10003C64.5777 6.06228 64.7029 6.0254 64.8353 5.98765C65.0264 6.13729 65.2006 6.32503 65.4159 6.43571C65.5286 6.11932 65.7168 5.82977 65.8526 5.52498C65.9517 5.33275 65.8816 5.05307 66.0895 4.92683C66.2573 4.8847 66.4437 4.87645 66.613 4.9062C66.9293 5.07664 67.1902 5.32587 67.494 5.51223C67.6268 5.59698 67.7841 5.52735 67.9155 5.48248C67.9384 5.2563 67.9684 5.02927 67.9549 4.80032C68.25 4.91569 68.4981 4.70532 68.7496 4.58095C68.7521 4.36447 68.7625 4.15423 68.7507 3.93948C68.7444 3.76734 68.5181 3.68679 68.5187 3.51379C68.6636 3.40242 68.8263 3.31777 68.98 3.21975C69.0488 3.3699 69.1175 3.52007 69.1863 3.67022C69.2209 3.65897 69.2973 3.63509 69.3319 3.62359C69.3918 3.46495 69.4731 3.30373 69.4088 3.13142C69.3307 3.14142 69.2588 3.14267 69.187 3.14404C69.1493 2.95405 69.0897 2.75957 69.1088 2.56267C69.1677 2.45467 69.2585 2.37148 69.3333 2.27589C69.3433 2.12332 69.1546 2.11032 69.0536 2.05057C69.0175 1.69467 69.5849 1.79844 69.5212 1.45312C69.3759 1.38437 69.2244 1.32355 69.0791 1.25479L69.0781 1.25613Z" fill="#528990" stroke="#528990" stroke-width="0.00670599"/>
<path d="M10.7358 138.36C8.73578 138.36 6.13578 138.227 2.93578 137.96L3.21578 130.64H5.45578L6.09578 135.12C7.13578 135.28 8.20245 135.427 9.29578 135.56C10.4158 135.667 11.3358 135.72 12.0558 135.72C12.2158 135.72 12.4291 135.547 12.6958 135.2C12.9624 134.853 13.2024 134.44 13.4158 133.96C13.6291 133.453 13.7358 132.973 13.7358 132.52C13.7358 131.48 13.3491 130.613 12.5758 129.92C11.8291 129.227 10.6691 128.44 9.09578 127.56C7.84245 126.84 6.82911 126.2 6.05578 125.64C5.28245 125.08 4.61578 124.373 4.05578 123.52C3.52245 122.667 3.25578 121.68 3.25578 120.56C3.25578 119.813 3.32245 119.12 3.45578 118.48C3.77578 117.893 4.37578 117.213 5.25578 116.44C6.13578 115.667 7.04245 115 7.97578 114.44C8.90911 113.853 9.60245 113.56 10.0558 113.56C10.2691 113.56 11.8424 113.707 14.7758 114C15.0958 114.027 15.4291 114.053 15.7758 114.08C16.1224 114.107 16.4691 114.147 16.8158 114.2L16.5358 121.12H14.2958L13.6958 117.04C12.8424 116.88 11.8291 116.733 10.6558 116.6C9.50911 116.44 8.64245 116.36 8.05578 116.36C7.70911 116.36 7.41578 116.6 7.17578 117.08C6.93578 117.533 6.81578 118.253 6.81578 119.24C6.81578 120.307 7.18911 121.2 7.93578 121.92C8.68245 122.64 9.78911 123.413 11.2558 124.24C12.6958 125.067 13.8024 125.76 14.5758 126.32C15.3758 126.853 16.0691 127.547 16.6558 128.4C17.2424 129.253 17.5358 130.28 17.5358 131.48C17.5358 132.147 17.4558 132.8 17.2958 133.44C16.9758 134.107 16.3891 134.827 15.5358 135.6C14.6824 136.373 13.7891 137.027 12.8558 137.56C11.9491 138.093 11.2424 138.36 10.7358 138.36ZM20.512 136.48L22.992 135.68V116.2L20.512 115.4V113.88H36.432L35.912 120.88H33.752L33.312 115.84L26.712 116.4V124.32L32.552 124.52V126.4L26.712 126.6V135.4L33.672 136.04L34.312 130.84H36.472L36.632 138H20.512V136.48ZM58.0964 140.48L57.1364 142.72H55.2964L47.6564 138.2C44.9364 137.8 42.8964 136.667 41.5364 134.8C40.2031 132.907 39.5364 130.2 39.5364 126.68C39.5364 124.893 39.6431 123.28 39.8564 121.84C40.0697 120.373 40.3631 119.173 40.7364 118.24C41.1364 117.6 41.7764 116.92 42.6564 116.2C43.5631 115.453 44.4697 114.827 45.3764 114.32C46.3097 113.813 46.9764 113.56 47.3764 113.56C50.9497 113.56 53.6164 114.507 55.3764 116.4C57.1364 118.267 58.0164 121.227 58.0164 125.28C58.0164 128.373 57.6831 131.173 57.0164 133.68C56.5097 134.4 55.6564 135.2 54.4564 136.08C53.2564 136.96 52.1897 137.613 51.2564 138.04L58.0964 140.48ZM43.4964 125.88C43.4964 128.493 43.6831 130.52 44.0564 131.96C44.4564 133.4 45.1097 134.427 46.0164 135.04C46.9231 135.653 48.2031 135.96 49.8564 135.96C50.1497 135.96 50.7631 135.72 51.6964 135.24C52.6564 134.76 53.1897 134.427 53.2964 134.24C53.8031 132 54.0564 129.253 54.0564 126C54.0564 122.667 53.6431 120.173 52.8164 118.52C51.9897 116.867 50.5231 116.04 48.4164 116.04C47.0831 116.04 46.1097 116.2 45.4964 116.52C44.8297 116.867 44.3231 117.84 43.9764 119.44C43.6564 121.04 43.4964 123.187 43.4964 125.88ZM69.6886 138.32C65.7153 138.32 63.7286 135.947 63.7286 131.2V116.2L61.2486 115.4V113.88H70.0886V115.6L67.4486 116.4V130.36C67.4486 132.253 67.6619 133.52 68.0886 134.16C68.5419 134.773 69.1286 135.08 69.8486 135.08C70.3019 135.08 71.1286 134.933 72.3286 134.64C73.5553 134.32 74.7153 134 75.8086 133.68V116.4L73.1686 115.6V113.88H82.0086V115.4L79.5286 116.2V135.68L82.0086 136.48V138H76.7286L75.8886 135.64C75.6753 135.72 75.4353 135.827 75.1686 135.96C74.9019 136.093 74.6086 136.227 74.2886 136.36C71.5153 137.667 69.9819 138.32 69.6886 138.32ZM96.0358 138.36C92.4624 138.36 89.7958 137.427 88.0358 135.56C86.2758 133.667 85.3958 130.707 85.3958 126.68C85.3958 124.893 85.5024 123.28 85.7158 121.84C85.9291 120.373 86.2224 119.173 86.5958 118.24C86.9958 117.6 87.6358 116.92 88.5158 116.2C89.4224 115.453 90.3291 114.827 91.2358 114.32C92.1691 113.813 92.8358 113.56 93.2358 113.56C96.8091 113.56 99.4758 114.507 101.236 116.4C102.996 118.267 103.876 121.227 103.876 125.28C103.876 128.373 103.542 131.173 102.876 133.68C102.449 134.267 101.756 134.933 100.796 135.68C99.8624 136.427 98.9291 137.067 97.9958 137.6C97.0891 138.107 96.4358 138.36 96.0358 138.36ZM95.7158 135.96C96.0091 135.96 96.6224 135.72 97.5558 135.24C98.5158 134.76 99.0491 134.427 99.1558 134.24C99.6624 132 99.9158 129.253 99.9158 126C99.9158 122.667 99.5024 120.173 98.6758 118.52C97.8491 116.867 96.3824 116.04 94.2758 116.04C92.9424 116.04 91.9691 116.2 91.3558 116.52C90.6891 116.867 90.1824 117.84 89.8358 119.44C89.5158 121.04 89.3558 123.187 89.3558 125.88C89.3558 128.493 89.5424 130.52 89.9158 131.96C90.3158 133.4 90.9691 134.427 91.8758 135.04C92.7824 135.653 94.0624 135.96 95.7158 135.96ZM107.31 136.48L109.79 135.68V116.2L107.27 115.4V113.88H116.15V115.6L113.51 116.4V135.48L116.15 136.28V138H107.31V136.48ZM118.056 136.48L120.536 135.68L126.936 114.16C127.79 114.027 128.643 113.907 129.496 113.8C130.376 113.693 130.99 113.627 131.336 113.6C131.443 113.6 131.656 113.707 131.976 113.92L138.496 135.68L140.976 136.48V138H131.816V136.28L134.536 135.48L132.976 129.92H125.536L124.056 135.48L126.896 136.28V138H118.056V136.48ZM132.376 127.8L129.496 117.08H129.016L126.136 127.8H132.376Z" fill="#528990"/>
</svg>
